<?xml version="1.0" encoding="utf-8"?>
<!-- Generator: Adobe Illustrator 19.0.0, SVG Export Plug-In . SVG Version: 6.00 Build 0)  -->
<svg version="1.1" id="Layer_1" xmlns="http://www.w3.org/2000/svg" xmlns:xlink="http://www.w3.org/1999/xlink" x="0px" y="0px"
	 viewBox="0 0 429.2 296.6" style="enable-background:new 0 0 429.2 296.6;" xml:space="preserve">
<style type="text/css">
	.st0{fill-rule:evenodd;clip-rule:evenodd;fill:#FBAA19;}
	.st1{fill-rule:evenodd;clip-rule:evenodd;fill:#FFFFFF;}
</style>
<path class="st0" d="M304.6,117.6L304.6,117.6c0-6.3,1.5-12.7,4.2-17.9c6.4-12.4,19.3-21,34.2-21V43.8c-34.4,0-63.4,23.8-71.3,55.9
	c-1.4,5.6-2.1,11.9-2.1,17.9h0v72.9c11.9,0,22.5-6,28.8-15.1c3.9-5.6,6.2-12.4,6.2-19.8V117.6z"/>
<path class="st1" d="M414.3,99.7c-3.2-13.2-10.1-25-19.4-34.4c-11.9-11.9-27.9-19.8-45.7-21.3v35.2c8.2,1.3,15.5,5.2,21.1,10.8
	c2.8,2.8,5.2,6.1,7.1,9.7h-61.4c-0.6,0.9-1.1,1.8-1.6,2.8c-2.3,4.5-3.5,9.8-3.5,15.1v6.1h0v10.9h66.5h37c1.4-5.6,2.1-11,2.1-17
	C416.4,111.5,415.6,105.3,414.3,99.7"/>
<path class="st1" d="M343,155.5c-13.6,0-25.5-7-32.3-17.6v17.6c0,8.6-2.7,16.7-7.3,23.3c11.4,7.4,25,11.6,39.6,11.6
	c20.2,0,38.6-8.2,51.8-21.5l-24.7-24.7C363.2,151.2,353.6,155.5,343,155.5"/>
<path class="st1" d="M246.2,65.9c-14.5-14.3-31.9-21.5-52.2-21.5c-20.3,0-37.6,7.2-52.1,21.5c-0.9,0.9-1.8,1.8-2.6,2.8
	C128,81,121.7,95.4,120.6,111.9c-0.1,1.9-0.2,3.8-0.2,5.7c0,1.9,0.1,3.8,0.2,5.7c-1.1,7.7-4.5,14.5-10.3,20.4
	c-7.1,7.3-15.7,10.9-25.8,10.9c-10.1,0-18.6-3.6-25.7-10.9c-7-7.3-10.6-16-10.6-26c0-10.2,3.5-18.9,10.5-26.3
	c7.1-7.3,15.7-11,25.8-11h13.2c8.7,0,16.2-3.1,22.3-9.3c3.5-3.5,6-7.8,7.5-12.9c-12.5-9.1-26.9-13.7-43.1-13.7c-2.5,0-5,0.1-7.5,0.3
	c-2.1,0.2-4.2,0.5-6.3,0.8c-14.5,2.6-27.2,9.3-38.3,20.3C18,80.2,10.8,97.4,10.8,117.6c0,20.2,7.2,37.4,21.7,51.6
	c11.1,10.9,23.8,17.6,38.3,20.1c2.1,0.4,4.2,0.6,6.3,0.8c2.4,0.2,4.9,0.3,7.5,0.3c16.2,0,30.6-4.6,43.1-13.6
	c3.1-2.3,6.2-4.8,9.1-7.7c0.9-0.9,1.8-1.8,2.7-2.7c11.4-12.3,17.7-26.7,18.9-43.1c0.1-1.9,0.2-3.8,0.2-5.7c0-1.9-0.1-3.9-0.2-5.8
	c1.1-7.8,4.4-14.6,10.1-20.5c7-7.3,15.6-11,25.8-11c10.1,0,18.7,3.7,25.8,11c7.1,7.3,10.7,16.1,10.7,26.3c0,10.1-3.6,18.8-10.7,26
	c-7.1,7.3-15.7,10.9-25.8,10.9c-10.1,0-18.6-3.6-25.7-10.9c-3.2-3.3-5.6-6.9-7.4-10.8c-0.1,1.3-0.3,2.5-0.3,3.8
	c-3,12.9-9.1,23.9-18.1,33.1c14.3,13.8,31.5,20.8,51.5,20.8c20.3,0,37.7-7.1,52.2-21.3c14.5-14.2,21.7-31.4,21.7-51.6
	C268,97.4,260.7,80.2,246.2,65.9"/>
<rect x="114.1" y="229.8" class="st0" width="35.8" height="11.9"/>
<g>
	<path class="st0" d="M360.6,229.8c0-13.3,6.6-19.9,19.9-19.9h15.9c13.3,0,19.9,6.6,19.9,19.9v15.9c0,13.3-6.6,19.9-19.9,19.9h-15.9
		c-13.3,0-19.9-6.6-19.9-19.9V229.8z M380.5,221.9c-5.3,0-8,2.7-8,8v15.9c0,5.3,2.7,8,8,8h15.9c5.3,0,8-2.6,8-8v-15.9
		c0-5.3-2.7-8-8-8H380.5z"/>
	<path class="st0" d="M307,221.9v43.8h-11.9v-55.8h35.8c13.3,0,19.9,6.6,19.9,19.9c0,11.1-4.6,17.5-13.9,19.4l13.9,16.5h-15.6
		l-13.3-15.9H315v-11.9h15.9c5.3,0,8-2.6,8-8c0-5.3-2.7-8-8-8H307z"/>
	<path class="st0" d="M241.5,221.9v43.8h-11.9v-55.8h35.8c13.3,0,19.9,6.6,19.9,19.9c0,13.3-6.6,19.9-19.9,19.9h-15.9v-11.9h15.9
		c5.3,0,8-2.6,8-8c0-5.3-2.7-8-8-8H241.5z"/>
	<path class="st0" d="M162.3,265.7v-55.8h35.8c13.3,0,19.9,5.3,19.9,15.9c0,4.3-1.1,7.7-3.3,10.3c2.2,2.9,3.3,6.7,3.3,11.6
		c0,11.9-6.6,17.9-19.9,17.9H162.3z M174.3,221.9v31.9h23.9c5.3,0,8-2,8-6c0-4-2.7-6-8-6h-15.9v-11.9h15.9c5.3,0,8-1.3,8-4
		c0-2.7-2.7-4-8-4H174.3z"/>
	<path class="st0" d="M114.1,209.9h35.8v11.9h-35.8c-5.3,0-8,2.7-8,8v15.9c0,5.3,2.7,8,8,8H138h11.9l0,11.9h-35.8
		c-13.3,0-19.9-6.6-19.9-19.9v-15.9C94.2,216.6,100.8,209.9,114.1,209.9"/>
	<polygon class="st0" points="50.3,221 56.8,209.9 69.9,209.9 56.8,232.1 60.3,239.8 76.8,209.9 89.8,209.9 60.3,265.6 50.3,243.2 
		40.4,265.6 10.8,209.9 23.9,209.9 40.4,239.8 43.8,232.1 30.7,209.9 43.8,209.9 	"/>
</g>
</svg>
